<?xml version="1.0" encoding="UTF-8" standalone="no"?>
<!DOCTYPE svg PUBLIC "-//W3C//DTD SVG 1.1//EN" "http://www.w3.org/Graphics/SVG/1.1/DTD/svg11.dtd">
<svg xmlns="http://www.w3.org/2000/svg" version="1.1" viewBox="0.00 0.00 178.00 178.00">
<g stroke-width="2.00" fill="none" stroke-linecap="butt">
<path stroke="#8ab4f4" vector-effect="non-scaling-stroke" d="
  M 40.88 0.00
  Q 20.00 19.74 0.00 40.70"
/>
<path stroke="#8ab4f4" vector-effect="non-scaling-stroke" d="
  M 178.00 137.12
  Q 157.98 158.41 137.08 178.00"
/>
<path stroke="#8ab4f4" vector-effect="non-scaling-stroke" d="
  M 93.29 120.04
  C 82.14 120.13 71.85 117.01 63.94 108.76
  C 50.74 94.97 52.48 73.76 67.42 62.12
  Q 77.70 54.11 90.54 54.03
  Q 109.32 53.92 126.95 54.01
  A 1.05 1.04 -89.7 0 0 128.00 52.96
  L 128.01 40.79
  Q 128.01 39.97 127.19 39.98
  Q 113.53 40.11 98.52 39.92
  Q 85.37 39.76 78.61 41.46
  Q 63.57 45.25 53.51 55.96
  C 35.05 75.60 37.49 105.43 58.05 122.27
  Q 67.14 129.72 78.86 132.57
  Q 85.66 134.22 98.40 134.06
  Q 112.40 133.88 126.69 134.05
  A 1.29 1.29 0.0 0 0 128.00 132.76
  L 128.00 120.70
  A 0.65 0.64 90.0 0 0 127.36 120.05
  Q 109.50 119.92 93.29 120.04"
/>
</g>
<path fill="#fafafa" d="
  M 0.00 0.00
  L 40.88 0.00
  Q 20.00 19.74 0.00 40.70
  L 0.00 0.00
  Z"
/>
<path fill="#196ded" d="
  M 40.88 0.00
  L 178.00 0.00
  L 178.00 137.12
  Q 157.98 158.41 137.08 178.00
  L 0.00 178.00
  L 0.00 40.70
  Q 20.00 19.74 40.88 0.00
  Z
  M 93.29 120.04
  C 82.14 120.13 71.85 117.01 63.94 108.76
  C 50.74 94.97 52.48 73.76 67.42 62.12
  Q 77.70 54.11 90.54 54.03
  Q 109.32 53.92 126.95 54.01
  A 1.05 1.04 -89.7 0 0 128.00 52.96
  L 128.01 40.79
  Q 128.01 39.97 127.19 39.98
  Q 113.53 40.11 98.52 39.92
  Q 85.37 39.76 78.61 41.46
  Q 63.57 45.25 53.51 55.96
  C 35.05 75.60 37.49 105.43 58.05 122.27
  Q 67.14 129.72 78.86 132.57
  Q 85.66 134.22 98.40 134.06
  Q 112.40 133.88 126.69 134.05
  A 1.29 1.29 0.0 0 0 128.00 132.76
  L 128.00 120.70
  A 0.65 0.64 90.0 0 0 127.36 120.05
  Q 109.50 119.92 93.29 120.04
  Z"
/>
<path fill="#fafafa" d="
  M 63.94 108.76
  C 71.85 117.01 82.14 120.13 93.29 120.04
  Q 109.50 119.92 127.36 120.05
  A 0.65 0.64 -90.0 0 1 128.00 120.70
  L 128.00 132.76
  A 1.29 1.29 0.0 0 1 126.69 134.05
  Q 112.40 133.88 98.40 134.06
  Q 85.66 134.22 78.86 132.57
  Q 67.14 129.72 58.05 122.27
  C 37.49 105.43 35.05 75.60 53.51 55.96
  Q 63.57 45.25 78.61 41.46
  Q 85.37 39.76 98.52 39.92
  Q 113.53 40.11 127.19 39.98
  Q 128.01 39.97 128.01 40.79
  L 128.00 52.96
  A 1.05 1.04 -89.7 0 1 126.95 54.01
  Q 109.32 53.92 90.54 54.03
  Q 77.70 54.11 67.42 62.12
  C 52.48 73.76 50.74 94.97 63.94 108.76
  Z"
/>
<path fill="#fafafa" d="
  M 178.00 137.12
  L 178.00 178.00
  L 137.08 178.00
  Q 157.98 158.41 178.00 137.12
  Z"
/>
</svg>
